<svg width="204" height="36" viewBox="0 0 204 36" fill="none" xmlns="http://www.w3.org/2000/svg">
<path d="M0.523438 35V0.625H11.0703C12.8281 0.625 14.1562 1.02865 15.0547 1.83594C15.9531 2.63021 16.5521 3.75 16.8516 5.19531C17.1641 6.6276 17.3203 8.3138 17.3203 10.2539C17.3203 12.1289 17.0794 13.6263 16.5977 14.7461C16.1289 15.8659 15.237 16.6406 13.9219 17.0703C15.0026 17.2917 15.7578 17.832 16.1875 18.6914C16.6302 19.5378 16.8516 20.638 16.8516 21.9922V35H10.0742V21.543C10.0742 20.5404 9.86589 19.9219 9.44922 19.6875C9.04557 19.4401 8.38802 19.3164 7.47656 19.3164V35H0.523438ZM7.51562 13.3594H9.17578C10.1263 13.3594 10.6016 12.3242 10.6016 10.2539C10.6016 8.91276 10.4974 8.03385 10.2891 7.61719C10.0807 7.20052 9.6901 6.99219 9.11719 6.99219H7.51562V13.3594ZM27.7891 35.3125C25.0417 35.3125 22.9388 34.4857 21.4805 32.832C20.0352 31.1654 19.3125 28.763 19.3125 25.625V9.29688C19.3125 6.35417 20.0286 4.12109 21.4609 2.59766C22.9062 1.07422 25.0156 0.3125 27.7891 0.3125C30.5625 0.3125 32.6654 1.07422 34.0977 2.59766C35.543 4.12109 36.2656 6.35417 36.2656 9.29688V25.625C36.2656 28.763 35.5365 31.1654 34.0781 32.832C32.6328 34.4857 30.5365 35.3125 27.7891 35.3125ZM27.8477 28.9844C28.8893 28.9844 29.4102 27.9753 29.4102 25.957V9.17969C29.4102 7.48698 28.9023 6.64062 27.8867 6.64062C26.7409 6.64062 26.168 7.50651 26.168 9.23828V25.9961C26.168 27.0638 26.2982 27.832 26.5586 28.3008C26.819 28.7565 27.2487 28.9844 27.8477 28.9844ZM47.2422 35.3125C44.4948 35.3125 42.3919 34.4857 40.9336 32.832C39.4883 31.1654 38.7656 28.763 38.7656 25.625V9.29688C38.7656 6.35417 39.4818 4.12109 40.9141 2.59766C42.3594 1.07422 44.4688 0.3125 47.2422 0.3125C50.0156 0.3125 52.1185 1.07422 53.5508 2.59766C54.9961 4.12109 55.7188 6.35417 55.7188 9.29688V25.625C55.7188 28.763 54.9896 31.1654 53.5312 32.832C52.0859 34.4857 49.9896 35.3125 47.2422 35.3125ZM47.3008 28.9844C48.3424 28.9844 48.8633 27.9753 48.8633 25.957V9.17969C48.8633 7.48698 48.3555 6.64062 47.3398 6.64062C46.194 6.64062 45.6211 7.50651 45.6211 9.23828V25.9961C45.6211 27.0638 45.7513 27.832 46.0117 28.3008C46.2721 28.7565 46.7018 28.9844 47.3008 28.9844ZM61.4414 35V7.22656H57.3594V0.625H72.3984V7.22656H68.3164V35H61.4414ZM82.4766 35.3125C79.3385 35.3125 77.0729 34.5312 75.6797 32.9688C74.2995 31.4062 73.6094 28.9193 73.6094 25.5078V22.1484H80.4062V26.4453C80.4062 27.2396 80.5234 27.8646 80.7578 28.3203C81.0052 28.763 81.4284 28.9844 82.0273 28.9844C82.6523 28.9844 83.082 28.8021 83.3164 28.4375C83.5638 28.0729 83.6875 27.474 83.6875 26.6406C83.6875 25.5859 83.5833 24.707 83.375 24.0039C83.1667 23.2878 82.8021 22.6107 82.2812 21.9727C81.7734 21.3216 81.0638 20.5664 80.1523 19.707L77.0664 16.7773C74.7617 14.6029 73.6094 12.1159 73.6094 9.31641C73.6094 6.38672 74.2865 4.15365 75.6406 2.61719C77.0078 1.08073 78.9805 0.3125 81.5586 0.3125C84.7096 0.3125 86.9427 1.15234 88.2578 2.83203C89.5859 4.51172 90.25 7.0638 90.25 10.4883H83.2578V8.125C83.2578 7.65625 83.1211 7.29167 82.8477 7.03125C82.5872 6.77083 82.2292 6.64062 81.7734 6.64062C81.2266 6.64062 80.8229 6.79688 80.5625 7.10938C80.3151 7.40885 80.1914 7.79948 80.1914 8.28125C80.1914 8.76302 80.3216 9.28385 80.582 9.84375C80.8424 10.4036 81.3568 11.0482 82.125 11.7773L86.0898 15.5859C86.8841 16.3411 87.6133 17.1419 88.2773 17.9883C88.9414 18.8216 89.4753 19.7982 89.8789 20.918C90.2826 22.0247 90.4844 23.3789 90.4844 24.9805C90.4844 28.2096 89.8854 30.7422 88.6875 32.5781C87.5026 34.401 85.4323 35.3125 82.4766 35.3125ZM113.609 35V0.625H122.926C125.426 0.625 127.242 1.23698 128.375 2.46094C129.521 3.67188 130.094 5.67708 130.094 8.47656V9.98047C130.094 11.5951 129.801 12.9036 129.215 13.9062C128.642 14.9089 127.763 15.5664 126.578 15.8789C128.128 16.2695 129.163 17.1875 129.684 18.6328C130.217 20.0651 130.484 21.8164 130.484 23.8867C130.484 26.1133 130.276 28.0599 129.859 29.7266C129.443 31.3932 128.688 32.6888 127.594 33.6133C126.5 34.5378 124.944 35 122.926 35H113.609ZM120.328 13.5742H121.734C122.372 13.5742 122.783 13.3268 122.965 12.832C123.147 12.3372 123.238 11.7448 123.238 11.0547V7.59766C123.238 6.49089 122.75 5.9375 121.773 5.9375H120.328V13.5742ZM121.012 28.9453C122.796 28.9453 123.688 28.099 123.688 26.4062V22.1094C123.688 21.1328 123.538 20.3646 123.238 19.8047C122.952 19.2318 122.405 18.9453 121.598 18.9453H120.328V28.9062C120.615 28.9323 120.842 28.9453 121.012 28.9453ZM140.953 35.3125C138.206 35.3125 136.103 34.4857 134.645 32.832C133.199 31.1654 132.477 28.763 132.477 25.625V9.29688C132.477 6.35417 133.193 4.12109 134.625 2.59766C136.07 1.07422 138.18 0.3125 140.953 0.3125C143.727 0.3125 145.829 1.07422 147.262 2.59766C148.707 4.12109 149.43 6.35417 149.43 9.29688V25.625C149.43 28.763 148.701 31.1654 147.242 32.832C145.797 34.4857 143.701 35.3125 140.953 35.3125ZM141.012 28.9844C142.053 28.9844 142.574 27.9753 142.574 25.957V9.17969C142.574 7.48698 142.066 6.64062 141.051 6.64062C139.905 6.64062 139.332 7.50651 139.332 9.23828V25.9961C139.332 27.0638 139.462 27.832 139.723 28.3008C139.983 28.7565 140.413 28.9844 141.012 28.9844ZM160.406 35.3125C157.659 35.3125 155.556 34.4857 154.098 32.832C152.652 31.1654 151.93 28.763 151.93 25.625V9.29688C151.93 6.35417 152.646 4.12109 154.078 2.59766C155.523 1.07422 157.633 0.3125 160.406 0.3125C163.18 0.3125 165.283 1.07422 166.715 2.59766C168.16 4.12109 168.883 6.35417 168.883 9.29688V25.625C168.883 28.763 168.154 31.1654 166.695 32.832C165.25 34.4857 163.154 35.3125 160.406 35.3125ZM160.465 28.9844C161.507 28.9844 162.027 27.9753 162.027 25.957V9.17969C162.027 7.48698 161.52 6.64062 160.504 6.64062C159.358 6.64062 158.785 7.50651 158.785 9.23828V25.9961C158.785 27.0638 158.915 27.832 159.176 28.3008C159.436 28.7565 159.866 28.9844 160.465 28.9844ZM174.605 35V7.22656H170.523V0.625H185.562V7.22656H181.48V35H174.605ZM195.641 35.3125C192.503 35.3125 190.237 34.5312 188.844 32.9688C187.464 31.4062 186.773 28.9193 186.773 25.5078V22.1484H193.57V26.4453C193.57 27.2396 193.688 27.8646 193.922 28.3203C194.169 28.763 194.592 28.9844 195.191 28.9844C195.816 28.9844 196.246 28.8021 196.48 28.4375C196.728 28.0729 196.852 27.474 196.852 26.6406C196.852 25.5859 196.747 24.707 196.539 24.0039C196.331 23.2878 195.966 22.6107 195.445 21.9727C194.938 21.3216 194.228 20.5664 193.316 19.707L190.23 16.7773C187.926 14.6029 186.773 12.1159 186.773 9.31641C186.773 6.38672 187.451 4.15365 188.805 2.61719C190.172 1.08073 192.145 0.3125 194.723 0.3125C197.874 0.3125 200.107 1.15234 201.422 2.83203C202.75 4.51172 203.414 7.0638 203.414 10.4883H196.422V8.125C196.422 7.65625 196.285 7.29167 196.012 7.03125C195.751 6.77083 195.393 6.64062 194.938 6.64062C194.391 6.64062 193.987 6.79688 193.727 7.10938C193.479 7.40885 193.355 7.79948 193.355 8.28125C193.355 8.76302 193.486 9.28385 193.746 9.84375C194.007 10.4036 194.521 11.0482 195.289 11.7773L199.254 15.5859C200.048 16.3411 200.777 17.1419 201.441 17.9883C202.105 18.8216 202.639 19.7982 203.043 20.918C203.447 22.0247 203.648 23.3789 203.648 24.9805C203.648 28.2096 203.049 30.7422 201.852 32.5781C200.667 34.401 198.596 35.3125 195.641 35.3125Z" fill="white"/>
<path d="M98.8047 35.4102C96.6693 35.4102 94.9896 34.5833 93.7656 32.9297C92.5547 31.276 91.9492 28.9974 91.9492 26.0938C91.9492 24.0234 92.1315 22.3047 92.4961 20.9375C92.8737 19.5703 93.3945 18.431 94.0586 17.5195C94.7227 16.6081 95.4844 15.8138 96.3438 15.1367L96.1875 14.7461C95.6406 13.3919 95.1589 12.1029 94.7422 10.8789C94.3385 9.64193 94.1367 8.3724 94.1367 7.07031C94.1367 5.75521 94.4167 4.58984 94.9766 3.57422C95.5365 2.55859 96.3112 1.76432 97.3008 1.19141C98.3034 0.605469 99.4492 0.3125 100.738 0.3125C102.014 0.3125 103.173 0.592448 104.215 1.15234C105.27 1.69922 106.109 2.52604 106.734 3.63281C107.359 4.73958 107.672 6.13932 107.672 7.83203C107.672 9.66797 107.327 11.2044 106.637 12.4414C105.96 13.6784 104.938 14.8698 103.57 16.0156L105.445 20.7422C106.214 18.8021 107.32 17.2982 108.766 16.2305L111.48 20.4688C109.97 21.6797 108.707 23.6523 107.691 26.3867L111.129 35H104.488L103.727 33.1445C103.219 33.7695 102.535 34.3034 101.676 34.7461C100.829 35.1888 99.8724 35.4102 98.8047 35.4102ZM100.27 6.46484C100.27 6.80339 100.354 7.30469 100.523 7.96875C100.693 8.61979 101.09 9.7526 101.715 11.3672C101.962 11.1068 102.184 10.6966 102.379 10.1367C102.574 9.57682 102.672 8.80859 102.672 7.83203C102.672 6.82943 102.548 6.1263 102.301 5.72266C102.066 5.31901 101.754 5.11719 101.363 5.11719C100.986 5.11719 100.706 5.26042 100.523 5.54688C100.354 5.82031 100.27 6.1263 100.27 6.46484ZM97.9258 26.9336C97.9258 29.2513 98.5833 30.4102 99.8984 30.4102C100.432 30.4102 100.862 30.2148 101.188 29.8242C101.513 29.4206 101.734 29.0039 101.852 28.5742L98.5703 20.5859C98.1406 21.4974 97.9258 23.0924 97.9258 25.3711V26.9336Z" fill="#FF6123"/>
</svg>
